<?xml version="1.0" encoding="UTF-8" standalone="no"?>
<!DOCTYPE svg PUBLIC "-//W3C//DTD SVG 1.1//EN"
 "http://www.w3.org/Graphics/SVG/1.1/DTD/svg11.dtd">
<!-- Generated by graphviz version 2.40.1 (20161225.0304)
 -->
<!-- Title: dependencies Pages: 1 -->
<svg width="504pt" height="222pt"
 viewBox="0.00 0.00 504.00 222.00" xmlns="http://www.w3.org/2000/svg" xmlns:xlink="http://www.w3.org/1999/xlink">
<g id="graph0" class="graph" transform="scale(1 1) rotate(0) translate(4 218)">
<title>dependencies</title>
<polygon fill="#ffffff" stroke="transparent" points="-4,4 -4,-218 500,-218 500,4 -4,4"/>
<text text-anchor="start" x="227.0091" y="-42.4" font-family="sans-serif" font-weight="bold" font-size="14.00" fill="#000000">Legend</text>
<polygon fill="#ffffb3" stroke="transparent" points="14,-10 14,-30 34,-30 34,-10 14,-10"/>
<text text-anchor="start" x="37.629" y="-15.4" font-family="sans-serif" font-size="14.00" fill="#000000"> &#160;Declarations</text>
<polygon fill="#8dd3c7" stroke="transparent" points="127,-10 127,-30 147,-30 147,-10 127,-10"/>
<text text-anchor="start" x="150.7251" y="-15.4" font-family="sans-serif" font-size="14.00" fill="#000000"> &#160;Module</text>
<polygon fill="#80b1d3" stroke="transparent" points="213,-10 213,-30 233,-30 233,-10 213,-10"/>
<text text-anchor="start" x="236.7812" y="-15.4" font-family="sans-serif" font-size="14.00" fill="#000000"> &#160;Bootstrap</text>
<polygon fill="#fdb462" stroke="transparent" points="310,-10 310,-30 330,-30 330,-10 310,-10"/>
<text text-anchor="start" x="333.6732" y="-15.4" font-family="sans-serif" font-size="14.00" fill="#000000"> &#160;Providers</text>
<polygon fill="#fb8072" stroke="transparent" points="406,-10 406,-30 426,-30 426,-10 406,-10"/>
<text text-anchor="start" x="429.7258" y="-15.4" font-family="sans-serif" font-size="14.00" fill="#000000"> &#160;Exports</text>
<g id="clust1" class="cluster">
<title>cluster_AppModule</title>
<polygon fill="none" stroke="#000000" stroke-dasharray="1,5" points="58,-70 58,-198 174,-198 174,-70 58,-70"/>
</g>
<g id="clust3" class="cluster">
<title>cluster_AppModule_imports</title>
<polygon fill="none" stroke="#000000" points="66,-78 66,-130 166,-130 166,-78 66,-78"/>
</g>
<g id="clust7" class="cluster">
<title>cluster_CatsModule</title>
<polygon fill="none" stroke="#000000" stroke-dasharray="1,5" points="182,-138 182,-206 438,-206 438,-138 182,-138"/>
</g>
<g id="clust10" class="cluster">
<title>cluster_CatsModule_exports</title>
<polygon fill="none" stroke="#000000" points="328,-146 328,-198 430,-198 430,-146 328,-146"/>
</g>
<g id="clust12" class="cluster">
<title>cluster_CatsModule_providers</title>
<polygon fill="none" stroke="#000000" points="190,-146 190,-198 320,-198 320,-146 190,-146"/>
</g>
<!-- CatsModule -->
<g id="node1" class="node">
<title>CatsModule</title>
<polygon fill="#8dd3c7" stroke="#000000" points="158.4373,-122 155.4373,-126 134.4373,-126 131.4373,-122 73.5627,-122 73.5627,-86 158.4373,-86 158.4373,-122"/>
<text text-anchor="middle" x="116" y="-99.8" font-family="Times,serif" font-size="14.00" fill="#000000">CatsModule</text>
</g>
<!-- AppModule -->
<g id="node2" class="node">
<title>AppModule</title>
<polygon fill="#8dd3c7" stroke="#000000" points="157.6571,-190 154.6571,-194 133.6571,-194 130.6571,-190 74.3429,-190 74.3429,-154 157.6571,-154 157.6571,-190"/>
<text text-anchor="middle" x="116" y="-167.8" font-family="Times,serif" font-size="14.00" fill="#000000">AppModule</text>
</g>
<!-- CatsModule&#45;&gt;AppModule -->
<g id="edge1" class="edge">
<title>CatsModule&#45;&gt;AppModule</title>
<path fill="none" stroke="#000000" d="M116,-122.2228C116,-122.2228 116,-143.7269 116,-143.7269"/>
<polygon fill="#000000" stroke="#000000" points="112.5001,-143.7269 116,-153.7269 119.5001,-143.727 112.5001,-143.7269"/>
</g>
<!-- CatsService  -->
<g id="node3" class="node">
<title>CatsService </title>
<polygon fill="#fb8072" stroke="#000000" points="422.3648,-190 335.6352,-190 335.6352,-154 422.3648,-154 422.3648,-190"/>
<text text-anchor="middle" x="379" y="-167.8" font-family="Times,serif" font-size="14.00" fill="#000000">CatsService </text>
</g>
<!-- CatsModule&#45;&gt;CatsService  -->
<g id="edge2" class="edge">
<title>CatsModule&#45;&gt;CatsService </title>
<path fill="none" stroke="#000000" stroke-dasharray="5,2" d="M158.2555,-98C232.5995,-98 379,-98 379,-98 379,-98 379,-143.7079 379,-143.7079"/>
<polygon fill="#000000" stroke="#000000" points="375.5001,-143.7078 379,-153.7079 382.5001,-143.7079 375.5001,-143.7078"/>
</g>
<!-- CatsService -->
<g id="node4" class="node">
<title>CatsService</title>
<ellipse fill="#fdb462" stroke="#000000" cx="255" cy="-172" rx="57.3166" ry="18"/>
<text text-anchor="middle" x="255" y="-167.8" font-family="Times,serif" font-size="14.00" fill="#000000">CatsService</text>
</g>
<!-- CatsService&#45;&gt;CatsModule -->
<g id="edge3" class="edge">
<title>CatsService&#45;&gt;CatsModule</title>
<path fill="none" stroke="#000000" d="M255,-153.7333C255,-135.4448 255,-110 255,-110 255,-110 168.4599,-110 168.4599,-110"/>
<polygon fill="#000000" stroke="#000000" points="168.4599,-106.5001 158.4599,-110 168.4598,-113.5001 168.4599,-106.5001"/>
</g>
</g>
</svg>
